<svg width="349" height="104" viewBox="0 0 349 104" fill="none" xmlns="http://www.w3.org/2000/svg">
<g style="mix-blend-mode:screen">
<circle cx="41.2563" cy="33.5207" r="33.5207" fill="#5957E9"/>
</g>
<g style="mix-blend-mode:screen">
<circle cx="33.5207" cy="70.4793" r="33.5207" fill="#EC4899"/>
</g>
<g style="mix-blend-mode:screen">
<circle cx="68.7603" cy="58.4463" r="33.5207" fill="#F87171"/>
</g>
<path d="M133.009 82C131.345 82 130.065 81.552 129.169 80.656C128.273 79.76 127.825 78.48 127.825 76.816V42.064C127.825 40.4 128.273 39.12 129.169 38.224C130.065 37.328 131.345 36.88 133.009 36.88H145.489C153.212 36.88 159.164 38.8427 163.345 42.768C167.569 46.6507 169.681 52.1973 169.681 59.408C169.681 63.0347 169.126 66.256 168.017 69.072C166.95 71.8453 165.393 74.192 163.345 76.112C161.297 78.032 158.78 79.504 155.793 80.528C152.806 81.5093 149.372 82 145.489 82H133.009ZM137.745 73.872H144.913C147.345 73.872 149.457 73.5733 151.249 72.976C153.041 72.3787 154.534 71.4827 155.729 70.288C156.924 69.0933 157.82 67.6 158.417 65.808C159.014 63.9733 159.313 61.84 159.313 59.408C159.313 54.544 158.097 50.9387 155.665 48.592C153.276 46.2027 149.692 45.008 144.913 45.008H137.745V73.872ZM182.572 82C180.908 82 179.628 81.552 178.732 80.656C177.836 79.76 177.388 78.48 177.388 76.816V42.064C177.388 40.4 177.836 39.12 178.732 38.224C179.628 37.328 180.908 36.88 182.572 36.88H204.908C206.188 36.88 207.148 37.2213 207.788 37.904C208.47 38.544 208.812 39.4827 208.812 40.72C208.812 42 208.47 42.9813 207.788 43.664C207.148 44.304 206.188 44.624 204.908 44.624H186.86V55.184H203.436C204.758 55.184 205.74 55.5253 206.38 56.208C207.062 56.848 207.404 57.808 207.404 59.088C207.404 60.368 207.062 61.3493 206.38 62.032C205.74 62.672 204.758 62.992 203.436 62.992H186.86V74.256H204.908C206.188 74.256 207.148 74.5973 207.788 75.28C208.47 75.92 208.812 76.8587 208.812 78.096C208.812 79.376 208.47 80.3573 207.788 81.04C207.148 81.68 206.188 82 204.908 82H182.572ZM231.641 82.704C229.849 82.704 228.014 82.5547 226.137 82.256C224.302 82 222.531 81.616 220.825 81.104C219.161 80.592 217.667 79.952 216.345 79.184C215.406 78.672 214.745 78.0107 214.361 77.2C213.977 76.3467 213.827 75.4933 213.913 74.64C214.041 73.7867 214.361 73.04 214.873 72.4C215.427 71.7173 216.11 71.2907 216.921 71.12C217.774 70.9067 218.713 71.056 219.737 71.568C221.486 72.5493 223.385 73.2747 225.433 73.744C227.523 74.2133 229.593 74.448 231.641 74.448C234.755 74.448 236.974 73.9787 238.297 73.04C239.619 72.0587 240.281 70.8427 240.281 69.392C240.281 68.1547 239.811 67.1733 238.873 66.448C237.934 65.7227 236.291 65.104 233.945 64.592L226.713 63.056C222.617 62.2027 219.566 60.752 217.561 58.704C215.598 56.6133 214.617 53.8827 214.617 50.512C214.617 48.3787 215.065 46.4373 215.961 44.688C216.857 42.9387 218.115 41.424 219.737 40.144C221.358 38.864 223.278 37.8827 225.497 37.2C227.758 36.5173 230.233 36.176 232.921 36.176C235.31 36.176 237.657 36.4747 239.961 37.072C242.265 37.6267 244.291 38.4587 246.041 39.568C246.894 40.08 247.47 40.7413 247.769 41.552C248.11 42.32 248.217 43.1093 248.089 43.92C248.003 44.688 247.683 45.3707 247.129 45.968C246.617 46.5653 245.955 46.9493 245.145 47.12C244.334 47.2907 243.353 47.0987 242.201 46.544C240.793 45.8187 239.299 45.2853 237.721 44.944C236.142 44.6027 234.521 44.432 232.857 44.432C231.065 44.432 229.529 44.6667 228.249 45.136C227.011 45.6053 226.051 46.2667 225.369 47.12C224.729 47.9733 224.409 48.9547 224.409 50.064C224.409 51.3013 224.857 52.304 225.753 53.072C226.649 53.84 228.206 54.4587 230.425 54.928L237.657 56.464C241.838 57.36 244.953 58.8107 247.001 60.816C249.049 62.7787 250.073 65.3813 250.073 68.624C250.073 70.7573 249.646 72.6987 248.793 74.448C247.939 76.1547 246.702 77.6267 245.081 78.864C243.459 80.1013 241.518 81.0613 239.257 81.744C236.995 82.384 234.457 82.704 231.641 82.704ZM278.849 82.704C273.771 82.704 269.462 81.744 265.921 79.824C262.422 77.904 259.755 75.216 257.921 71.76C256.086 68.304 255.169 64.2507 255.169 59.6C255.169 56.016 255.702 52.7947 256.769 49.936C257.878 47.0347 259.457 44.5813 261.505 42.576C263.595 40.528 266.113 38.9493 269.057 37.84C272.043 36.7307 275.414 36.176 279.169 36.176C281.473 36.176 283.777 36.432 286.081 36.944C288.385 37.456 290.603 38.3093 292.737 39.504C293.633 40.016 294.23 40.6773 294.529 41.488C294.87 42.256 294.955 43.088 294.785 43.984C294.657 44.8373 294.315 45.6053 293.761 46.288C293.249 46.928 292.566 47.3547 291.713 47.568C290.902 47.7387 289.963 47.568 288.897 47.056C287.489 46.288 285.995 45.7333 284.417 45.392C282.838 45.008 281.11 44.816 279.233 44.816C276.203 44.816 273.665 45.392 271.617 46.544C269.569 47.6533 268.033 49.3173 267.009 51.536C266.027 53.712 265.537 56.4 265.537 59.6C265.537 64.4213 266.689 68.0693 268.993 70.544C271.339 73.0187 274.795 74.256 279.361 74.256C280.897 74.256 282.475 74.1067 284.097 73.808C285.718 73.5093 287.318 73.0827 288.897 72.528L287.041 76.56V64.272H281.281C280.001 64.272 279.019 63.952 278.337 63.312C277.654 62.672 277.313 61.7973 277.313 60.688C277.313 59.536 277.654 58.6613 278.337 58.064C279.019 57.424 280.001 57.104 281.281 57.104H291.329C292.609 57.104 293.569 57.4453 294.209 58.128C294.891 58.8107 295.233 59.792 295.233 61.072V75.92C295.233 77.0293 295.019 77.968 294.593 78.736C294.166 79.504 293.441 80.0587 292.417 80.4C290.497 81.0827 288.342 81.6373 285.953 82.064C283.563 82.4907 281.195 82.704 278.849 82.704ZM308.621 82.576C307.127 82.576 305.975 82.1707 305.165 81.36C304.397 80.5067 304.013 79.312 304.013 77.776V41.296C304.013 39.6747 304.397 38.4373 305.165 37.584C305.975 36.7307 307.042 36.304 308.365 36.304C309.517 36.304 310.391 36.5387 310.989 37.008C311.629 37.4347 312.354 38.16 313.165 39.184L335.629 67.792H333.901V41.04C333.901 39.5467 334.285 38.3947 335.053 37.584C335.863 36.7307 337.015 36.304 338.509 36.304C340.002 36.304 341.133 36.7307 341.901 37.584C342.711 38.3947 343.117 39.5467 343.117 41.04V77.968C343.117 79.376 342.754 80.5067 342.029 81.36C341.303 82.1707 340.322 82.576 339.085 82.576C337.89 82.576 336.93 82.3413 336.205 81.872C335.522 81.4027 334.775 80.656 333.965 79.632L311.565 51.024H313.229V77.776C313.229 79.312 312.845 80.5067 312.077 81.36C311.309 82.1707 310.157 82.576 308.621 82.576Z" fill="url(#paint0_linear_27_661)"/>
<defs>
<linearGradient id="paint0_linear_27_661" x1="136.065" y1="33.8068" x2="206.312" y2="155.718" gradientUnits="userSpaceOnUse">
<stop stop-color="#FFC2FB"/>
<stop offset="1" stop-color="#F87171"/>
</linearGradient>
</defs>
</svg>
