<svg width="390" height="390" viewBox="0 0 390 390" fill="none" xmlns="http://www.w3.org/2000/svg">
<g clip-path="url(#clip0_9_243)">
<path d="M390 195C390.068 241.03 373.786 285.589 344.057 320.731C342.977 322.013 341.878 323.275 340.757 324.53C327.576 339.354 312.222 352.092 295.219 362.309C291.319 364.65 287.334 366.856 283.263 368.928C282.851 369.137 282.433 369.346 282.021 369.549C281.529 369.798 281.029 370.041 280.53 370.284C270.229 375.326 259.498 379.44 248.466 382.578C247.319 382.902 246.17 383.217 245.019 383.523C230.507 387.362 215.599 389.511 200.594 389.926C199.811 389.946 199.042 389.96 198.299 389.973C198.036 389.98 197.78 389.986 197.524 389.986C196.68 389.993 195.843 390 195 390C179.187 390.012 163.431 388.102 148.079 384.312C146.54 383.934 145.008 383.536 143.484 383.118C135.451 380.925 127.569 378.213 119.888 375.001C115.839 373.314 111.863 371.494 107.958 369.542C107.075 369.097 106.191 368.651 105.32 368.192C104.949 368.01 104.585 367.815 104.22 367.626C83.4103 356.642 64.7483 342 49.1278 324.402C48.0482 323.194 46.9889 321.966 45.9431 320.731C28.7322 300.325 15.8941 276.603 8.22377 251.034C0.55342 225.465 -1.7858 198.593 1.35098 172.083C4.48776 145.573 13.0338 119.99 26.4597 96.9169C39.8856 73.844 57.9055 53.7731 79.4034 37.9474C80.51 37.131 81.6233 36.3213 82.7502 35.5318C82.9728 35.3766 83.1955 35.2214 83.4182 35.0663C103.217 21.1976 125.44 11.162 148.935 5.47888C150.271 5.14826 151.607 4.83789 152.957 4.54775C178.406 -1.01907 204.707 -1.48006 230.336 3.19151C231.679 3.44117 233.022 3.69757 234.358 3.97421C257.643 8.75037 279.852 17.7687 299.875 30.5792C300.32 30.8626 300.766 31.146 301.211 31.4429C302.108 32.0232 303.006 32.6169 303.89 33.2175C330.414 51.0497 352.143 75.1349 367.16 103.349C382.178 131.563 390.021 163.038 390 195Z" fill="#F2F2F2"/>
<path d="M145.744 295.88L83.4182 301.413L82.7502 301.474V35.5318C82.9728 35.3766 83.1955 35.2214 83.4182 35.0663C96.4075 25.9807 110.459 18.5167 125.259 12.8403L128.444 56.7659L128.734 60.7874L131.885 104.349L132.856 117.749L145.629 294.329L145.744 295.88Z" fill="#CCCCCC"/>
<path d="M299.875 30.5792C300.32 30.8626 300.766 31.146 301.211 31.4429V301.474L299.875 301.353L238.224 295.88L238.339 294.329L251.111 117.749L252.083 104.349L255.234 60.7874L255.524 56.7659L258.864 10.7014C273.268 15.694 287.033 22.366 299.875 30.5792Z" fill="#CCCCCC"/>
<path d="M299.875 30.5793V305.158C299.875 310.428 296.245 314.712 291.778 314.712H91.5151C87.8175 314.712 84.6799 311.771 83.7285 307.756C83.5209 306.906 83.4167 306.033 83.4182 305.158V35.0663C83.1955 35.2215 82.9729 35.3767 82.7502 35.5318C81.6234 36.3213 80.51 37.131 79.4035 37.9474V305.158C79.3437 309.161 80.8384 313.031 83.5734 315.954C85.0075 317.456 86.8214 318.543 88.8229 319.098C89.7003 319.337 90.6057 319.457 91.5151 319.456H291.778C292.69 319.457 293.597 319.336 294.477 319.098C299.861 317.648 303.89 311.953 303.89 305.158V33.2175C303.006 32.617 302.108 32.0232 301.211 31.4429C300.766 31.146 300.32 30.8626 299.875 30.5793Z" fill="#CCCCCC"/>
<path d="M301.884 56.7686H81.4109V60.7894H301.884V56.7686Z" fill="#CCCCCC"/>
<path d="M148.935 5.47889C150.271 5.14827 151.607 4.8379 152.957 4.54776V113.727H148.935V5.47889Z" fill="#CCCCCC"/>
<path d="M230.336 3.19153C231.679 3.44118 233.022 3.69759 234.358 3.97423V113.728H230.336V3.19153Z" fill="#CCCCCC"/>
<path d="M327.013 294.329H62.9803C58.1808 294.329 53.5778 296.235 50.1841 299.629C46.7903 303.023 44.8837 307.626 44.8837 312.425C44.8837 317.225 46.7903 321.828 50.1841 325.221C53.5778 328.615 58.1808 330.522 62.9803 330.522H327.013C329.583 330.522 332.123 329.974 334.465 328.914C336.806 327.854 338.894 326.306 340.589 324.375C341.356 323.502 342.038 322.557 342.626 321.554C343.082 320.785 343.476 319.982 343.807 319.152C344.91 316.407 345.321 313.433 345.007 310.491C344.693 307.55 343.661 304.73 342.003 302.28C340.346 299.829 338.112 297.823 335.499 296.437C332.885 295.051 329.971 294.327 327.013 294.329Z" fill="#CCCCCC"/>
<path d="M301.884 104.348H82.7512V117.75H301.884V104.348Z" fill="#CCCCCC"/>
<path d="M190.307 100.327H194.328C195.296 100.327 196.254 100.518 197.149 100.888C198.043 101.259 198.856 101.802 199.54 102.486C200.225 103.171 200.768 103.983 201.138 104.878C201.509 105.772 201.699 106.73 201.699 107.699H182.936C182.936 105.744 183.712 103.869 185.095 102.486C186.477 101.104 188.352 100.327 190.307 100.327Z" fill="#CCCCCC"/>
<path d="M344.057 320.731C338.195 327.677 331.855 334.204 325.083 340.265H64.9168C58.1447 334.204 51.8047 327.677 45.9431 320.731H344.057Z" fill="#3F3D56"/>
<path d="M216.781 253.075H172.976C172.74 253.072 172.506 253.109 172.282 253.183C171.806 253.33 171.39 253.625 171.095 254.026C170.8 254.427 170.641 254.912 170.642 255.41V324.611H219.122V255.41C219.122 255.103 219.061 254.798 218.943 254.515C218.825 254.231 218.653 253.974 218.435 253.757C218.218 253.54 217.96 253.368 217.676 253.251C217.392 253.134 217.088 253.074 216.781 253.075ZM200.202 287.217C200.204 288.339 199.834 289.431 199.15 290.321C198.497 291.184 197.59 291.821 196.556 292.142C195.522 292.463 194.413 292.451 193.386 292.108C192.359 291.765 191.466 291.109 190.832 290.231C190.198 289.354 189.855 288.299 189.852 287.217V279.187C189.864 277.823 190.415 276.519 191.384 275.559C192.354 274.599 193.663 274.06 195.027 274.06C196.391 274.06 197.7 274.599 198.67 275.559C199.639 276.519 200.19 277.823 200.202 279.187V287.217Z" fill="#2F2E41"/>
<path d="M170.493 322.398V329.071C170.493 329.417 170.63 329.749 170.874 329.994C171.118 330.24 171.45 330.378 171.796 330.38H217.968C218.314 330.377 218.644 330.238 218.888 329.993C219.132 329.748 219.269 329.417 219.27 329.071V322.398H170.493Z" fill="#3F3D56"/>
<path d="M289.315 145.083H102.075C100.466 145.085 98.9236 145.724 97.7854 146.861C96.6471 147.998 96.0059 149.54 96.0021 151.149V277.501C96.0033 279.111 96.6436 280.655 97.7821 281.793C98.9207 282.932 100.465 283.572 102.075 283.573H289.315C290.925 283.572 292.469 282.932 293.608 281.793C294.746 280.655 295.387 279.111 295.388 277.501V151.149C295.384 149.54 294.743 147.998 293.605 146.861C292.466 145.724 290.924 145.085 289.315 145.083Z" fill="#3F3D56"/>
<path d="M287.75 149.469H103.633C102.772 149.47 101.947 149.814 101.338 150.424C100.73 151.033 100.388 151.859 100.388 152.721V275.942C100.389 276.802 100.732 277.627 101.34 278.235C101.948 278.843 102.773 279.186 103.633 279.187H287.75C288.61 279.186 289.435 278.843 290.043 278.235C290.651 277.627 290.994 276.802 290.995 275.942V152.721C290.995 151.859 290.653 151.033 290.045 150.424C289.437 149.814 288.611 149.47 287.75 149.469Z" fill="#6C63FF"/>
<path d="M253.864 330.272L252.164 322.195C252.093 321.866 251.942 321.559 251.723 321.304C251.503 321.048 251.224 320.851 250.909 320.731C250.681 320.642 250.438 320.596 250.194 320.596H144.05C143.806 320.596 143.563 320.642 143.335 320.731C143.02 320.851 142.741 321.048 142.521 321.304C142.302 321.559 142.151 321.866 142.08 322.195L140.38 330.272C140.318 330.565 140.323 330.868 140.393 331.16C140.464 331.451 140.598 331.722 140.787 331.955C140.976 332.188 141.214 332.375 141.484 332.504C141.755 332.633 142.05 332.701 142.35 332.701H251.887C252.188 332.703 252.485 332.636 252.756 332.506C253.027 332.377 253.265 332.187 253.453 331.952C253.642 331.72 253.777 331.449 253.848 331.158C253.919 330.868 253.925 330.565 253.864 330.272Z" fill="#2F2E41"/>
<path d="M147.873 322.051H145.158C144.976 322.051 144.828 322.198 144.828 322.38V323.746C144.828 323.928 144.976 324.075 145.158 324.075H147.873C148.055 324.075 148.202 323.928 148.202 323.746V322.38C148.202 322.198 148.055 322.051 147.873 322.051Z" fill="#3F3D56"/>
<path d="M154.62 322.051H151.905C151.723 322.051 151.576 322.198 151.576 322.38V323.746C151.576 323.928 151.723 324.075 151.905 324.075H154.62C154.802 324.075 154.949 323.928 154.949 323.746V322.38C154.949 322.198 154.802 322.051 154.62 322.051Z" fill="#3F3D56"/>
<path d="M161.367 322.051H158.653C158.471 322.051 158.323 322.198 158.323 322.38V323.746C158.323 323.928 158.471 324.075 158.653 324.075H161.367C161.549 324.075 161.697 323.928 161.697 323.746V322.38C161.697 322.198 161.549 322.051 161.367 322.051Z" fill="#3F3D56"/>
<path d="M168.115 322.051H165.4C165.218 322.051 165.071 322.198 165.071 322.38V323.746C165.071 323.928 165.218 324.075 165.4 324.075H168.115C168.297 324.075 168.444 323.928 168.444 323.746V322.38C168.444 322.198 168.297 322.051 168.115 322.051Z" fill="#3F3D56"/>
<path d="M174.862 322.051H172.147C171.965 322.051 171.818 322.198 171.818 322.38V323.746C171.818 323.928 171.965 324.075 172.147 324.075H174.862C175.044 324.075 175.192 323.928 175.192 323.746V322.38C175.192 322.198 175.044 322.051 174.862 322.051Z" fill="#3F3D56"/>
<path d="M181.61 322.051H178.895C178.713 322.051 178.565 322.198 178.565 322.38V323.746C178.565 323.928 178.713 324.075 178.895 324.075H181.61C181.792 324.075 181.939 323.928 181.939 323.746V322.38C181.939 322.198 181.792 322.051 181.61 322.051Z" fill="#3F3D56"/>
<path d="M188.357 322.051H185.642C185.46 322.051 185.313 322.198 185.313 322.38V323.746C185.313 323.928 185.46 324.075 185.642 324.075H188.357C188.539 324.075 188.686 323.928 188.686 323.746V322.38C188.686 322.198 188.539 322.051 188.357 322.051Z" fill="#3F3D56"/>
<path d="M195.104 322.051H192.39C192.208 322.051 192.06 322.198 192.06 322.38V323.746C192.06 323.928 192.208 324.075 192.39 324.075H195.104C195.286 324.075 195.434 323.928 195.434 323.746V322.38C195.434 322.198 195.286 322.051 195.104 322.051Z" fill="#3F3D56"/>
<path d="M201.852 322.051H199.137C198.955 322.051 198.808 322.198 198.808 322.38V323.746C198.808 323.928 198.955 324.075 199.137 324.075H201.852C202.034 324.075 202.181 323.928 202.181 323.746V322.38C202.181 322.198 202.034 322.051 201.852 322.051Z" fill="#3F3D56"/>
<path d="M208.599 322.051H205.884C205.702 322.051 205.555 322.198 205.555 322.38V323.746C205.555 323.928 205.702 324.075 205.884 324.075H208.599C208.781 324.075 208.929 323.928 208.929 323.746V322.38C208.929 322.198 208.781 322.051 208.599 322.051Z" fill="#3F3D56"/>
<path d="M215.347 322.051H212.632C212.45 322.051 212.302 322.198 212.302 322.38V323.746C212.302 323.928 212.45 324.075 212.632 324.075H215.347C215.529 324.075 215.676 323.928 215.676 323.746V322.38C215.676 322.198 215.529 322.051 215.347 322.051Z" fill="#3F3D56"/>
<path d="M222.094 322.051H219.379C219.197 322.051 219.05 322.198 219.05 322.38V323.746C219.05 323.928 219.197 324.075 219.379 324.075H222.094C222.276 324.075 222.424 323.928 222.424 323.746V322.38C222.424 322.198 222.276 322.051 222.094 322.051Z" fill="#3F3D56"/>
<path d="M228.841 322.051H226.127C225.945 322.051 225.797 322.198 225.797 322.38V323.746C225.797 323.928 225.945 324.075 226.127 324.075H228.841C229.023 324.075 229.171 323.928 229.171 323.746V322.38C229.171 322.198 229.023 322.051 228.841 322.051Z" fill="#3F3D56"/>
<path d="M235.589 322.051H232.874C232.692 322.051 232.545 322.198 232.545 322.38V323.746C232.545 323.928 232.692 324.075 232.874 324.075H235.589C235.771 324.075 235.918 323.928 235.918 323.746V322.38C235.918 322.198 235.771 322.051 235.589 322.051Z" fill="#3F3D56"/>
<path d="M242.336 322.051H239.621C239.439 322.051 239.292 322.198 239.292 322.38V323.746C239.292 323.928 239.439 324.075 239.621 324.075H242.336C242.518 324.075 242.666 323.928 242.666 323.746V322.38C242.666 322.198 242.518 322.051 242.336 322.051Z" fill="#3F3D56"/>
<path d="M249.084 322.051H246.369C246.187 322.051 246.039 322.198 246.039 322.38V323.746C246.039 323.928 246.187 324.075 246.369 324.075H249.084C249.266 324.075 249.413 323.928 249.413 323.746V322.38C249.413 322.198 249.266 322.051 249.084 322.051Z" fill="#3F3D56"/>
<path d="M147.793 325.424H145.078C144.896 325.424 144.749 325.572 144.749 325.754V327.119C144.749 327.301 144.896 327.449 145.078 327.449H147.793C147.975 327.449 148.122 327.301 148.122 327.119V325.754C148.122 325.572 147.975 325.424 147.793 325.424Z" fill="#3F3D56"/>
<path d="M154.54 325.424H151.825C151.643 325.424 151.496 325.572 151.496 325.754V327.119C151.496 327.301 151.643 327.449 151.825 327.449H154.54C154.722 327.449 154.87 327.301 154.87 327.119V325.754C154.87 325.572 154.722 325.424 154.54 325.424Z" fill="#3F3D56"/>
<path d="M161.288 325.424H158.573C158.391 325.424 158.243 325.572 158.243 325.754V327.119C158.243 327.301 158.391 327.449 158.573 327.449H161.288C161.47 327.449 161.617 327.301 161.617 327.119V325.754C161.617 325.572 161.47 325.424 161.288 325.424Z" fill="#3F3D56"/>
<path d="M168.035 325.424H165.32C165.138 325.424 164.991 325.572 164.991 325.754V327.119C164.991 327.301 165.138 327.449 165.32 327.449H168.035C168.217 327.449 168.365 327.301 168.365 327.119V325.754C168.365 325.572 168.217 325.424 168.035 325.424Z" fill="#3F3D56"/>
<path d="M174.783 325.424H172.068C171.886 325.424 171.738 325.572 171.738 325.754V327.119C171.738 327.301 171.886 327.449 172.068 327.449H174.783C174.964 327.449 175.112 327.301 175.112 327.119V325.754C175.112 325.572 174.964 325.424 174.783 325.424Z" fill="#3F3D56"/>
<path d="M181.53 325.424H178.815C178.633 325.424 178.486 325.572 178.486 325.754V327.119C178.486 327.301 178.633 327.449 178.815 327.449H181.53C181.712 327.449 181.859 327.301 181.859 327.119V325.754C181.859 325.572 181.712 325.424 181.53 325.424Z" fill="#3F3D56"/>
<path d="M188.277 325.424H185.562C185.381 325.424 185.233 325.572 185.233 325.754V327.119C185.233 327.301 185.381 327.449 185.562 327.449H188.277C188.459 327.449 188.607 327.301 188.607 327.119V325.754C188.607 325.572 188.459 325.424 188.277 325.424Z" fill="#3F3D56"/>
<path d="M195.025 325.424H192.31C192.128 325.424 191.98 325.572 191.98 325.754V327.119C191.98 327.301 192.128 327.449 192.31 327.449H195.025C195.207 327.449 195.354 327.301 195.354 327.119V325.754C195.354 325.572 195.207 325.424 195.025 325.424Z" fill="#3F3D56"/>
<path d="M201.772 325.424H199.057C198.875 325.424 198.728 325.572 198.728 325.754V327.119C198.728 327.301 198.875 327.449 199.057 327.449H201.772C201.954 327.449 202.102 327.301 202.102 327.119V325.754C202.102 325.572 201.954 325.424 201.772 325.424Z" fill="#3F3D56"/>
<path d="M208.52 325.424H205.805C205.623 325.424 205.475 325.572 205.475 325.754V327.119C205.475 327.301 205.623 327.449 205.805 327.449H208.52C208.701 327.449 208.849 327.301 208.849 327.119V325.754C208.849 325.572 208.701 325.424 208.52 325.424Z" fill="#3F3D56"/>
<path d="M215.267 325.424H212.552C212.37 325.424 212.223 325.572 212.223 325.754V327.119C212.223 327.301 212.37 327.449 212.552 327.449H215.267C215.449 327.449 215.596 327.301 215.596 327.119V325.754C215.596 325.572 215.449 325.424 215.267 325.424Z" fill="#3F3D56"/>
<path d="M222.014 325.424H219.299C219.118 325.424 218.97 325.572 218.97 325.754V327.119C218.97 327.301 219.118 327.449 219.299 327.449H222.014C222.196 327.449 222.344 327.301 222.344 327.119V325.754C222.344 325.572 222.196 325.424 222.014 325.424Z" fill="#3F3D56"/>
<path d="M228.762 325.424H226.047C225.865 325.424 225.717 325.572 225.717 325.754V327.119C225.717 327.301 225.865 327.449 226.047 327.449H228.762C228.944 327.449 229.091 327.301 229.091 327.119V325.754C229.091 325.572 228.944 325.424 228.762 325.424Z" fill="#3F3D56"/>
<path d="M235.509 325.424H232.794C232.612 325.424 232.465 325.572 232.465 325.754V327.119C232.465 327.301 232.612 327.449 232.794 327.449H235.509C235.691 327.449 235.839 327.301 235.839 327.119V325.754C235.839 325.572 235.691 325.424 235.509 325.424Z" fill="#3F3D56"/>
<path d="M242.257 325.424H239.542C239.36 325.424 239.212 325.572 239.212 325.754V327.119C239.212 327.301 239.36 327.449 239.542 327.449H242.257C242.439 327.449 242.586 327.301 242.586 327.119V325.754C242.586 325.572 242.439 325.424 242.257 325.424Z" fill="#3F3D56"/>
<path d="M249.004 325.424H246.289C246.107 325.424 245.96 325.572 245.96 325.754V327.119C245.96 327.301 246.107 327.449 246.289 327.449H249.004C249.186 327.449 249.333 327.301 249.333 327.119V325.754C249.333 325.572 249.186 325.424 249.004 325.424Z" fill="#3F3D56"/>
<path d="M203.796 329.473H177.466C177.284 329.473 177.136 329.62 177.136 329.802V331.168C177.136 331.35 177.284 331.497 177.466 331.497H203.796C203.978 331.497 204.126 331.35 204.126 331.168V329.802C204.126 329.62 203.978 329.473 203.796 329.473Z" fill="#3F3D56"/>
<path d="M278.498 166.443H106.221C106.042 166.439 105.871 166.365 105.746 166.237C105.621 166.109 105.551 165.937 105.551 165.758C105.551 165.579 105.621 165.407 105.746 165.278C105.871 165.15 106.042 165.077 106.221 165.073H278.498C278.677 165.077 278.847 165.15 278.973 165.278C279.098 165.407 279.168 165.579 279.168 165.758C279.168 165.937 279.098 166.109 278.973 166.237C278.847 166.365 278.677 166.439 278.498 166.443Z" fill="#3F3D56"/>
<path d="M117.948 161.575C120.165 161.575 121.963 159.737 121.963 157.47C121.963 155.203 120.165 153.366 117.948 153.366C115.731 153.366 113.933 155.203 113.933 157.47C113.933 159.737 115.731 161.575 117.948 161.575Z" fill="#3F3D56"/>
<path d="M131.818 161.575C134.035 161.575 135.833 159.737 135.833 157.47C135.833 155.203 134.035 153.366 131.818 153.366C129.601 153.366 127.803 155.203 127.803 157.47C127.803 159.737 129.601 161.575 131.818 161.575Z" fill="#3F3D56"/>
<path d="M145.688 161.575C147.905 161.575 149.703 159.737 149.703 157.47C149.703 155.203 147.905 153.366 145.688 153.366C143.471 153.366 141.673 155.203 141.673 157.47C141.673 159.737 143.471 161.575 145.688 161.575Z" fill="#3F3D56"/>
<path d="M270.146 154.381H260.295C260.1 154.385 259.915 154.466 259.779 154.605C259.642 154.744 259.566 154.931 259.566 155.126C259.566 155.321 259.642 155.508 259.779 155.647C259.915 155.787 260.1 155.867 260.295 155.872H270.146C270.342 155.869 270.529 155.789 270.666 155.65C270.804 155.51 270.881 155.322 270.881 155.126C270.881 154.93 270.804 154.742 270.666 154.603C270.529 154.463 270.342 154.383 270.146 154.381Z" fill="#3F3D56"/>
<path d="M270.146 157.181H260.295C260.1 157.185 259.914 157.266 259.778 157.405C259.642 157.544 259.565 157.731 259.565 157.926C259.565 158.121 259.642 158.308 259.778 158.448C259.914 158.587 260.1 158.668 260.295 158.672H270.146C270.342 158.67 270.529 158.59 270.667 158.45C270.805 158.311 270.882 158.123 270.882 157.926C270.882 157.73 270.805 157.542 270.667 157.402C270.529 157.263 270.342 157.183 270.146 157.181Z" fill="#3F3D56"/>
<path d="M270.146 159.981H260.295C260.1 159.986 259.915 160.066 259.779 160.205C259.642 160.345 259.566 160.532 259.566 160.727C259.566 160.921 259.642 161.108 259.779 161.248C259.915 161.387 260.1 161.468 260.295 161.472H270.146C270.342 161.469 270.529 161.39 270.666 161.25C270.804 161.111 270.881 160.923 270.881 160.727C270.881 160.531 270.804 160.343 270.666 160.203C270.529 160.064 270.342 159.984 270.146 159.981Z" fill="#3F3D56"/>
<path d="M121.076 182.364H117.536C116.463 182.364 115.593 183.234 115.593 184.308C115.593 185.381 116.463 186.251 117.536 186.251H121.076C122.149 186.251 123.019 185.381 123.019 184.308C123.019 183.234 122.149 182.364 121.076 182.364Z" fill="#E6E6E6"/>
<path d="M161.56 182.364H158.02C156.947 182.364 156.077 183.234 156.077 184.308C156.077 185.381 156.947 186.251 158.02 186.251H161.56C162.633 186.251 163.503 185.381 163.503 184.308C163.503 183.234 162.633 182.364 161.56 182.364Z" fill="#E6E6E6"/>
<path d="M173.031 182.364H169.491C168.418 182.364 167.548 183.234 167.548 184.308C167.548 185.381 168.418 186.251 169.491 186.251H173.031C174.104 186.251 174.974 185.381 174.974 184.308C174.974 183.234 174.104 182.364 173.031 182.364Z" fill="#E6E6E6"/>
<path d="M150.548 182.04H128.548C127.474 182.04 126.604 182.91 126.604 183.984C126.604 185.057 127.474 185.927 128.548 185.927H150.548C151.621 185.927 152.491 185.057 152.491 183.984C152.491 182.91 151.621 182.04 150.548 182.04Z" fill="#E6E6E6"/>
<path d="M204.527 182.04H182.527C181.454 182.04 180.584 182.91 180.584 183.984C180.584 185.057 181.454 185.927 182.527 185.927H204.527C205.601 185.927 206.471 185.057 206.471 183.984C206.471 182.91 205.601 182.04 204.527 182.04Z" fill="#E6E6E6"/>
<path d="M131.871 191.136H128.332C127.258 191.136 126.388 192.006 126.388 193.079C126.388 194.152 127.258 195.022 128.332 195.022H131.871C132.945 195.022 133.815 194.152 133.815 193.079C133.815 192.006 132.945 191.136 131.871 191.136Z" fill="#E6E6E6"/>
<path d="M172.356 191.136H168.816C167.743 191.136 166.873 192.006 166.873 193.079C166.873 194.152 167.743 195.022 168.816 195.022H172.356C173.429 195.022 174.299 194.152 174.299 193.079C174.299 192.006 173.429 191.136 172.356 191.136Z" fill="#E6E6E6"/>
<path d="M183.826 191.136H180.287C179.213 191.136 178.343 192.006 178.343 193.079C178.343 194.152 179.213 195.022 180.287 195.022H183.826C184.9 195.022 185.77 194.152 185.77 193.079C185.77 192.006 184.9 191.136 183.826 191.136Z" fill="#E6E6E6"/>
<path d="M161.344 190.812H139.344C138.27 190.812 137.4 191.682 137.4 192.755C137.4 193.828 138.27 194.698 139.344 194.698H161.344C162.417 194.698 163.287 193.828 163.287 192.755C163.287 191.682 162.417 190.812 161.344 190.812Z" fill="#E6E6E6"/>
<path d="M215.323 190.812H193.323C192.25 190.812 191.38 191.682 191.38 192.755C191.38 193.828 192.25 194.698 193.323 194.698H215.323C216.396 194.698 217.266 193.828 217.266 192.755C217.266 191.682 216.396 190.812 215.323 190.812Z" fill="#E6E6E6"/>
<path d="M142.667 199.908H139.127C138.054 199.908 137.184 200.778 137.184 201.851C137.184 202.924 138.054 203.794 139.127 203.794H142.667C143.741 203.794 144.611 202.924 144.611 201.851C144.611 200.778 143.741 199.908 142.667 199.908Z" fill="#E6E6E6"/>
<path d="M183.152 199.908H179.612C178.539 199.908 177.669 200.778 177.669 201.851C177.669 202.924 178.539 203.794 179.612 203.794H183.152C184.225 203.794 185.095 202.924 185.095 201.851C185.095 200.778 184.225 199.908 183.152 199.908Z" fill="#E6E6E6"/>
<path d="M194.622 199.908H191.082C190.009 199.908 189.139 200.778 189.139 201.851C189.139 202.924 190.009 203.794 191.082 203.794H194.622C195.696 203.794 196.566 202.924 196.566 201.851C196.566 200.778 195.696 199.908 194.622 199.908Z" fill="#E6E6E6"/>
<path d="M172.14 199.584H150.139C149.066 199.584 148.196 200.454 148.196 201.527C148.196 202.6 149.066 203.47 150.139 203.47H172.14C173.213 203.47 174.083 202.6 174.083 201.527C174.083 200.454 173.213 199.584 172.14 199.584Z" fill="#E6E6E6"/>
<path d="M226.119 199.584H204.119C203.045 199.584 202.175 200.454 202.175 201.527C202.175 202.6 203.045 203.47 204.119 203.47H226.119C227.192 203.47 228.062 202.6 228.062 201.527C228.062 200.454 227.192 199.584 226.119 199.584Z" fill="#E6E6E6"/>
<path d="M153.463 208.679H149.923C148.85 208.679 147.98 209.549 147.98 210.622C147.98 211.696 148.85 212.566 149.923 212.566H153.463C154.536 212.566 155.406 211.696 155.406 210.622C155.406 209.549 154.536 208.679 153.463 208.679Z" fill="#E6E6E6"/>
<path d="M193.948 208.679H190.408C189.335 208.679 188.465 209.549 188.465 210.622C188.465 211.696 189.335 212.566 190.408 212.566H193.948C195.021 212.566 195.891 211.696 195.891 210.622C195.891 209.549 195.021 208.679 193.948 208.679Z" fill="#E6E6E6"/>
<path d="M205.418 208.679H201.878C200.805 208.679 199.935 209.549 199.935 210.622C199.935 211.696 200.805 212.566 201.878 212.566H205.418C206.491 212.566 207.361 211.696 207.361 210.622C207.361 209.549 206.491 208.679 205.418 208.679Z" fill="#E6E6E6"/>
<path d="M182.936 208.355H160.935C159.862 208.355 158.992 209.225 158.992 210.298C158.992 211.372 159.862 212.242 160.935 212.242H182.936C184.009 212.242 184.879 211.372 184.879 210.298C184.879 209.225 184.009 208.355 182.936 208.355Z" fill="#E6E6E6"/>
<path d="M161.56 243.559H158.02C156.947 243.559 156.077 244.429 156.077 245.502C156.077 246.575 156.947 247.445 158.02 247.445H161.56C162.633 247.445 163.503 246.575 163.503 245.502C163.503 244.429 162.633 243.559 161.56 243.559Z" fill="#E6E6E6"/>
<path d="M173.031 243.559H169.491C168.418 243.559 167.548 244.429 167.548 245.502C167.548 246.575 168.418 247.445 169.491 247.445H173.031C174.104 247.445 174.974 246.575 174.974 245.502C174.974 244.429 174.104 243.559 173.031 243.559Z" fill="#E6E6E6"/>
<path d="M204.527 243.883H182.527C181.454 243.883 180.584 244.753 180.584 245.826C180.584 246.899 181.454 247.769 182.527 247.769H204.527C205.601 247.769 206.471 246.899 206.471 245.826C206.471 244.753 205.601 243.883 204.527 243.883Z" fill="#E6E6E6"/>
<path d="M121.076 243.559H117.536C116.463 243.559 115.593 244.429 115.593 245.502C115.593 246.575 116.463 247.445 117.536 247.445H121.076C122.149 247.445 123.019 246.575 123.019 245.502C123.019 244.429 122.149 243.559 121.076 243.559Z" fill="#E6E6E6"/>
<path d="M150.548 243.883H128.548C127.474 243.883 126.604 244.753 126.604 245.826C126.604 246.899 127.474 247.769 128.548 247.769H150.548C151.621 247.769 152.491 246.899 152.491 245.826C152.491 244.753 151.621 243.883 150.548 243.883Z" fill="#E6E6E6"/>
<path d="M131.871 234.787H128.332C127.258 234.787 126.388 235.657 126.388 236.731C126.388 237.804 127.258 238.674 128.332 238.674H131.871C132.945 238.674 133.815 237.804 133.815 236.731C133.815 235.657 132.945 234.787 131.871 234.787Z" fill="#E6E6E6"/>
<path d="M172.356 234.787H168.816C167.743 234.787 166.873 235.657 166.873 236.731C166.873 237.804 167.743 238.674 168.816 238.674H172.356C173.429 238.674 174.299 237.804 174.299 236.731C174.299 235.657 173.429 234.787 172.356 234.787Z" fill="#E6E6E6"/>
<path d="M183.826 234.787H180.287C179.213 234.787 178.343 235.657 178.343 236.731C178.343 237.804 179.213 238.674 180.287 238.674H183.826C184.9 238.674 185.77 237.804 185.77 236.731C185.77 235.657 184.9 234.787 183.826 234.787Z" fill="#E6E6E6"/>
<path d="M161.344 235.111H139.344C138.27 235.111 137.4 235.981 137.4 237.055C137.4 238.128 138.27 238.998 139.344 238.998H161.344C162.417 238.998 163.287 238.128 163.287 237.055C163.287 235.981 162.417 235.111 161.344 235.111Z" fill="#E6E6E6"/>
<path d="M142.667 226.016H139.127C138.054 226.016 137.184 226.886 137.184 227.959C137.184 229.032 138.054 229.902 139.127 229.902H142.667C143.741 229.902 144.611 229.032 144.611 227.959C144.611 226.886 143.741 226.016 142.667 226.016Z" fill="#E6E6E6"/>
<path d="M183.152 226.016H179.612C178.539 226.016 177.669 226.886 177.669 227.959C177.669 229.032 178.539 229.902 179.612 229.902H183.152C184.225 229.902 185.095 229.032 185.095 227.959C185.095 226.886 184.225 226.016 183.152 226.016Z" fill="#E6E6E6"/>
<path d="M194.622 226.016H191.082C190.009 226.016 189.139 226.886 189.139 227.959C189.139 229.032 190.009 229.902 191.082 229.902H194.622C195.696 229.902 196.566 229.032 196.566 227.959C196.566 226.886 195.696 226.016 194.622 226.016Z" fill="#E6E6E6"/>
<path d="M172.14 226.34H150.139C149.066 226.34 148.196 227.21 148.196 228.283C148.196 229.356 149.066 230.226 150.139 230.226H172.14C173.213 230.226 174.083 229.356 174.083 228.283C174.083 227.21 173.213 226.34 172.14 226.34Z" fill="#E6E6E6"/>
<path d="M153.463 217.244H149.923C148.85 217.244 147.98 218.114 147.98 219.187C147.98 220.26 148.85 221.13 149.923 221.13H153.463C154.536 221.13 155.406 220.26 155.406 219.187C155.406 218.114 154.536 217.244 153.463 217.244Z" fill="#E6E6E6"/>
<path d="M193.948 217.244H190.408C189.335 217.244 188.465 218.114 188.465 219.187C188.465 220.26 189.335 221.13 190.408 221.13H193.948C195.021 221.13 195.891 220.26 195.891 219.187C195.891 218.114 195.021 217.244 193.948 217.244Z" fill="#E6E6E6"/>
<path d="M205.418 217.244H201.878C200.805 217.244 199.935 218.114 199.935 219.187C199.935 220.26 200.805 221.13 201.878 221.13H205.418C206.491 221.13 207.361 220.26 207.361 219.187C207.361 218.114 206.491 217.244 205.418 217.244Z" fill="#E6E6E6"/>
<path d="M182.936 217.568H160.935C159.862 217.568 158.992 218.438 158.992 219.511C158.992 220.584 159.862 221.454 160.935 221.454H182.936C184.009 221.454 184.879 220.584 184.879 219.511C184.879 218.438 184.009 217.568 182.936 217.568Z" fill="#E6E6E6"/>
<path d="M280.564 370.277C280.152 370.487 279.734 370.696 279.322 370.898C268.661 376.229 260.133 379.258 248.466 382.578C247.481 371.58 246.53 352.248 245.606 340.265C245.363 337.154 245.12 334.543 244.884 332.701C244.824 331.722 244.624 330.756 244.29 329.833L244.33 332.701L244.432 340.265L245.019 383.523C230.507 387.362 215.599 389.511 200.594 389.926C199.811 389.946 199.042 389.96 198.3 389.973C198.036 389.98 197.78 389.986 197.524 389.986C196.68 389.993 195.843 390 195 390C179.187 390.012 163.431 388.102 148.079 384.312C148.409 373.428 148.74 354.313 149.057 340.265C149.124 337.519 149.185 334.961 149.253 332.701C149.381 327.87 149.516 324.388 149.644 323.221C149.53 323.428 149.442 323.647 149.381 323.875C148.756 326.785 148.33 329.734 148.106 332.701C147.869 334.961 147.633 337.519 147.397 340.265C146.142 354.859 144.833 374.704 143.484 383.118C135.451 380.925 127.569 378.213 119.888 375.001C115.839 373.314 111.863 371.494 107.958 369.542C108.701 364.684 109.477 359.239 110.273 353.591C110.894 349.212 111.535 344.711 112.189 340.265C113.201 333.396 114.24 326.662 115.293 320.731C116.831 312.067 118.41 305.104 119.976 301.906C121.46 298.87 122.944 295.874 124.382 293.006C124.881 292.001 125.38 291.009 125.866 290.044C125.981 289.815 126.096 289.592 126.21 289.369C127.243 287.338 128.241 285.395 129.193 283.573C130.009 282.015 130.785 280.544 131.52 279.187C133.302 275.895 134.813 273.27 135.933 271.61C140.616 264.507 147.587 259.219 155.69 256.624L155.892 256.57L156.034 256.631L169.832 252.393L171.85 251.773L173.206 251.354L177.983 247.717L180.581 245.74L183.017 243.885L187.78 240.262L217.273 242.077L223.015 255.902L235.876 260.605L236.098 260.504L236.294 260.423L236.497 260.477C244.598 263.074 251.568 268.362 256.253 275.463C256.887 276.414 257.656 277.669 258.527 279.187C259.269 280.476 260.079 281.947 260.956 283.573C262.204 285.888 263.567 288.499 265.011 291.326C265.328 291.947 265.652 292.581 265.976 293.222C266.576 294.409 267.186 295.622 267.805 296.859C269.242 299.726 270.726 302.722 272.211 305.765C273.499 308.404 274.802 313.829 276.084 320.731C277.143 326.466 278.196 333.227 279.214 340.265C280.55 349.387 279.127 360.311 280.334 368.705C280.409 369.238 280.49 369.758 280.564 370.277Z" fill="#3F3D56"/>
<path d="M195.415 229.226C214.359 229.226 229.716 213.869 229.716 194.925C229.716 175.98 214.359 160.623 195.415 160.623C176.471 160.623 161.114 175.98 161.114 194.925C161.114 213.869 176.471 229.226 195.415 229.226Z" fill="#A0616A"/>
<path d="M251.982 149.469C251.304 147.886 250.402 146.409 249.303 145.083C244.094 138.72 234.621 135.92 224.898 143.45C223.026 143.032 221.075 143.144 219.264 143.774C218.409 144.083 217.607 144.525 216.889 145.083C215.416 146.231 214.268 147.742 213.555 149.469C213.175 150.38 212.925 151.341 212.813 152.323C210.41 151.074 207.866 150.116 205.236 149.469C198.782 147.863 192.034 147.863 185.581 149.469C183.513 149.992 181.521 150.781 179.656 151.817C176.499 153.638 174.684 155.939 174.36 158.497C169.805 158.753 165.068 161.148 161.54 165.075C161.142 165.514 160.757 165.973 160.399 166.445C157.432 170.328 155.837 175.086 155.865 179.974V180.83H156.722C159.07 180.828 161.396 181.282 163.571 182.166C164.98 182.733 166.314 183.469 167.545 184.359C168.35 184.93 169.11 185.562 169.819 186.249C171.462 187.84 172.855 189.671 173.948 191.68C176.751 196.757 177.723 202.644 176.701 208.353C176.467 209.675 176.123 210.974 175.675 212.24C175.038 214.045 174.198 215.772 173.172 217.388C173.132 217.449 173.098 217.509 173.057 217.57C172.605 218.292 172.174 219.028 171.769 219.77C171.465 220.323 171.182 220.89 170.919 221.457C170.149 223.034 169.5 224.667 168.975 226.342C168.036 229.304 167.483 232.374 167.329 235.478C167.282 236.301 167.268 237.124 167.295 237.947C167.335 240.069 167.568 242.183 167.99 244.263C168.051 244.546 168.112 244.823 168.172 245.106L168.665 247.259L169.832 252.393L170.642 255.929L171.391 259.208L172.497 257.623C172.875 257.083 173.827 255.423 175.102 253.075C175.945 251.543 176.924 249.715 177.983 247.718C179.461 244.917 181.08 241.793 182.666 238.676C183.307 237.414 183.941 236.159 184.555 234.931C185.716 232.603 186.809 230.356 187.747 228.359C188.61 226.517 189.346 224.884 189.892 223.575C190.061 224.432 190.203 225.303 190.311 226.18C190.432 227.07 190.52 227.975 190.567 228.879C190.58 229.014 190.587 229.155 190.594 229.29L190.621 229.844L190.628 230.006L191.343 230.1C195.468 230.542 199.627 230.573 203.758 230.195H203.765C209.238 229.782 214.607 228.481 219.662 226.342C222.532 225.096 225.213 223.452 227.624 221.457C228.75 220.524 229.802 219.504 230.768 218.407C231.011 218.13 231.247 217.854 231.476 217.57C232.812 215.929 233.955 214.141 234.884 212.24C235.506 210.985 236.034 209.686 236.463 208.353C239.054 200.506 238.905 190.715 236.017 179.083C236.798 178.933 237.545 178.645 238.224 178.233C240.343 176.958 241.814 174.427 242.272 171.337L243.001 171.533C245.584 170.329 247.886 168.596 249.755 166.445C250.125 166.007 250.472 165.55 250.794 165.075C254.094 160.217 254.121 154.387 251.982 149.469Z" fill="#2F2E41"/>
<path opacity="0.2" d="M139.212 320.701L144.946 298.575L150.008 317.668L139.212 320.701Z" fill="black"/>
<path d="M291.778 306.285C289.727 334.543 291.852 346.985 280.53 370.284C270.229 375.326 259.498 379.44 248.466 382.578C247.319 382.902 246.17 383.217 245.019 383.522C230.507 387.362 215.599 389.511 200.594 389.926C199.811 389.946 199.042 389.96 198.3 389.973C198.036 389.98 197.78 389.986 197.524 389.986C196.68 389.993 195.843 390 195 390C179.187 390.012 163.431 388.102 148.079 384.312C146.54 383.934 145.009 383.536 143.484 383.118C135.451 380.925 127.569 378.213 119.888 375.001C115.839 373.314 111.863 371.494 107.958 369.542C107.075 369.097 106.191 368.651 105.32 368.192C100.847 360.325 98.3029 350.757 98.249 339.259C101.346 319.449 284.936 289.2 291.778 306.285Z" fill="#2F2E41"/>
<path opacity="0.2" d="M291.773 311.124C291.878 309.375 291.995 307.568 292.131 305.686C285.289 288.602 101.699 318.85 98.6022 338.661C98.6107 340.477 98.6884 342.239 98.819 343.96C106.319 324.407 280.732 295.658 291.773 311.124Z" fill="black"/>
<path d="M110.047 230.864C110.092 230.252 110.005 229.638 109.792 229.062C109.58 228.487 109.246 227.964 108.815 227.528C108.383 227.092 107.863 226.754 107.29 226.536C106.716 226.318 106.103 226.226 105.491 226.265C105.263 226.273 105.036 226.302 104.813 226.35L77.9835 232.411C77.384 232.556 76.8216 232.825 76.3325 233.201C75.8434 233.577 75.4384 234.051 75.1437 234.593C74.7503 234.608 74.3595 234.665 73.9782 234.763C73.1433 234.952 72.3539 235.304 71.6549 235.798C70.956 236.293 70.3613 236.92 69.9047 237.644C69.4482 238.368 69.1387 239.175 68.9941 240.019C68.8494 240.863 68.8724 241.727 69.0616 242.562C69.2508 243.396 69.6027 244.186 70.097 244.885C70.5914 245.584 71.2185 246.178 71.9427 246.635C73.4052 247.557 75.1741 247.86 76.8603 247.478C77.82 247.255 78.7179 246.821 79.4881 246.207L88.5795 271.807C89.0336 272.609 89.7352 273.243 90.5794 273.613C91.4236 273.984 92.365 274.071 93.2629 273.862L110.704 269.921C111.595 269.712 112.397 269.226 112.995 268.533C113.593 267.84 113.955 266.976 114.031 266.064L110.047 230.864ZM76.4576 245.656C75.2534 245.927 73.9906 245.71 72.9461 245.052C71.9016 244.394 71.1607 243.349 70.8858 242.146C70.6109 240.942 70.8244 239.679 71.4796 238.632C72.1348 237.586 73.1781 236.842 74.3808 236.564C74.4655 236.543 74.5504 236.564 74.6351 236.543C74.6287 237.315 74.8261 238.075 75.2074 238.747L78.5344 244.554C77.9552 245.103 77.2372 245.484 76.4576 245.656Z" fill="#2F2E41"/>
<path d="M105.491 226.265C105.745 229.656 99.9385 233.555 92.1611 235.102C85.0192 236.564 78.6193 235.547 76.8179 232.877C77.1799 232.662 77.5732 232.505 77.9836 232.411L104.813 226.35C105.036 226.302 105.263 226.273 105.491 226.265Z" fill="#3F3D56"/>
<path d="M86.9358 312.341L102.005 304.806L89.4474 270.9L86.1378 253.801C85.7078 251.579 84.7023 249.509 83.2219 247.798C81.7414 246.087 79.8377 244.794 77.7011 244.049C75.5645 243.304 73.2698 243.133 71.0463 243.553C68.8229 243.973 66.7485 244.969 65.0304 246.441C62.4846 248.623 60.8861 251.709 60.5723 255.048C60.2585 258.386 61.254 261.716 63.3486 264.334L75.6338 279.69L86.9358 312.341Z" fill="#A0616A"/>
<path d="M102.005 298.527L81.9127 308.573L97.1609 356.351C98.2558 359.782 100.219 362.872 102.859 365.321C105.5 367.77 108.728 369.495 112.232 370.329C116.552 371.358 121.087 370.984 125.18 369.262C129.273 367.539 132.711 364.558 134.996 360.75L175.429 291.445C178.295 286.669 179.179 280.962 177.894 275.544C176.608 270.125 173.255 265.423 168.55 262.443C166.019 260.841 163.18 259.789 160.216 259.356C157.252 258.923 154.23 259.12 151.347 259.932C148.464 260.745 145.784 262.155 143.483 264.072C141.181 265.988 139.308 268.368 137.987 271.056L113.308 323.643L102.005 298.527Z" fill="#3F3D56"/>
<path d="M95.7908 255.35C95.7534 255.35 95.7163 255.344 95.6811 255.331L91.2943 253.821C91.2413 253.803 91.1936 253.772 91.1556 253.731C91.1177 253.689 91.0906 253.639 91.0768 253.585C91.063 253.531 91.063 253.474 91.0768 253.42C91.0905 253.365 91.1176 253.315 91.1555 253.274L94.4182 249.722C94.4481 249.689 94.4842 249.662 94.5244 249.644C94.5646 249.625 94.6081 249.614 94.6525 249.612C94.6968 249.61 94.7411 249.617 94.7829 249.632C94.8246 249.647 94.8629 249.67 94.8957 249.7C94.9284 249.73 94.9548 249.767 94.9735 249.807C94.9922 249.847 95.0028 249.891 95.0046 249.935C95.0064 249.979 94.9994 250.024 94.984 250.065C94.9687 250.107 94.9452 250.145 94.9151 250.178L92.001 253.351L95.9005 254.693C95.976 254.719 96.0398 254.771 96.0806 254.84C96.1215 254.909 96.1367 254.989 96.1235 255.068C96.1103 255.147 96.0697 255.218 96.0088 255.27C95.9478 255.321 95.8706 255.35 95.7908 255.35Z" fill="#6C63FF"/>
<path d="M101.804 254.119C101.737 254.119 101.671 254.099 101.615 254.061C101.559 254.024 101.516 253.97 101.491 253.908C101.466 253.846 101.46 253.777 101.474 253.712C101.488 253.646 101.521 253.586 101.569 253.539L104.534 250.672L100.551 249.031C100.51 249.014 100.473 248.989 100.441 248.958C100.41 248.927 100.385 248.889 100.368 248.849C100.351 248.808 100.342 248.764 100.342 248.719C100.342 248.675 100.35 248.631 100.367 248.59C100.384 248.549 100.409 248.512 100.44 248.481C100.472 248.449 100.509 248.424 100.55 248.407C100.591 248.39 100.635 248.382 100.679 248.382C100.723 248.382 100.767 248.39 100.808 248.407L105.268 250.245C105.32 250.266 105.365 250.3 105.401 250.344C105.436 250.387 105.46 250.438 105.471 250.493C105.481 250.548 105.478 250.605 105.461 250.659C105.444 250.712 105.414 250.76 105.374 250.799L102.038 254.024C101.975 254.085 101.891 254.119 101.804 254.119Z" fill="#6C63FF"/>
<path d="M96.7116 257.413C96.678 257.414 96.6445 257.408 96.6124 257.398C96.57 257.385 96.5307 257.364 96.4965 257.336C96.4623 257.308 96.434 257.273 96.4133 257.234C96.3926 257.195 96.3797 257.152 96.3756 257.108C96.3714 257.064 96.376 257.019 96.389 256.977L99.5028 246.856C99.5294 246.77 99.5888 246.699 99.6678 246.657C99.7468 246.616 99.8391 246.607 99.9245 246.634C100.01 246.66 100.081 246.719 100.123 246.798C100.165 246.877 100.174 246.969 100.148 247.055L97.0341 257.176C97.0128 257.245 96.97 257.305 96.912 257.348C96.8539 257.39 96.7837 257.413 96.7116 257.413Z" fill="#6C63FF"/>
</g>
<defs>
<clipPath id="clip0_9_243">
<rect width="390" height="390" fill="white"/>
</clipPath>
</defs>
</svg>
